<mxfile host="app.diagrams.net" modified="2023-03-24T14:12:42.539Z" agent="Mozilla/5.0 (Windows NT 10.0; Win64; x64) AppleWebKit/537.36 (KHTML, like Gecko) Chrome/111.0.0.0 Safari/537.36" etag="I5MfnQflzDQpz-1Xhdjh" version="21.1.0" type="github">
  <diagram name="PÃ¡gina-1" id="6Il4zlVb3WrhtZT2jowf">
    <mxGraphModel dx="880" dy="484" grid="1" gridSize="10" guides="1" tooltips="1" connect="1" arrows="1" fold="1" page="1" pageScale="1" pageWidth="827" pageHeight="1169" math="0" shadow="0">
      <root>
        <mxCell id="0" />
        <mxCell id="1" parent="0" />
        <mxCell id="OWbzr1YiDZEQwKMD5FUT-12" style="edgeStyle=orthogonalEdgeStyle;rounded=0;orthogonalLoop=1;jettySize=auto;html=1;entryX=0;entryY=0.625;entryDx=0;entryDy=0;entryPerimeter=0;" edge="1" parent="1" source="OWbzr1YiDZEQwKMD5FUT-2" target="OWbzr1YiDZEQwKMD5FUT-9">
          <mxGeometry relative="1" as="geometry">
            <mxPoint x="450" y="370" as="targetPoint" />
            <Array as="points">
              <mxPoint x="450" y="250" />
              <mxPoint x="450" y="460" />
            </Array>
          </mxGeometry>
        </mxCell>
        <mxCell id="OWbzr1YiDZEQwKMD5FUT-2" value="Aluno" style="shape=umlActor;verticalLabelPosition=bottom;verticalAlign=top;html=1;outlineConnect=0;" vertex="1" parent="1">
          <mxGeometry x="400" y="220" width="30" height="60" as="geometry" />
        </mxCell>
        <mxCell id="OWbzr1YiDZEQwKMD5FUT-4" value="UC01&amp;nbsp;&lt;br&gt;Trancar &lt;br&gt;Matricula" style="ellipse;whiteSpace=wrap;html=1;align=center;" vertex="1" parent="1">
          <mxGeometry x="520" y="210" width="110" height="80" as="geometry" />
        </mxCell>
        <mxCell id="OWbzr1YiDZEQwKMD5FUT-6" value="" style="endArrow=none;html=1;rounded=0;exitX=0.5;exitY=0.5;exitDx=0;exitDy=0;exitPerimeter=0;entryX=0;entryY=0.5;entryDx=0;entryDy=0;" edge="1" parent="1" source="OWbzr1YiDZEQwKMD5FUT-2" target="OWbzr1YiDZEQwKMD5FUT-4">
          <mxGeometry width="50" height="50" relative="1" as="geometry">
            <mxPoint x="450" y="280" as="sourcePoint" />
            <mxPoint x="500" y="230" as="targetPoint" />
          </mxGeometry>
        </mxCell>
        <mxCell id="OWbzr1YiDZEQwKMD5FUT-7" value="UC03&lt;br&gt;Notificar&amp;nbsp;&lt;br&gt;Coordenador" style="ellipse;whiteSpace=wrap;html=1;align=center;" vertex="1" parent="1">
          <mxGeometry x="620" y="320" width="110" height="80" as="geometry" />
        </mxCell>
        <mxCell id="OWbzr1YiDZEQwKMD5FUT-9" value="UC02&lt;br&gt;Mostra&lt;br&gt;Grade" style="ellipse;whiteSpace=wrap;html=1;align=center;" vertex="1" parent="1">
          <mxGeometry x="520" y="420" width="110" height="80" as="geometry" />
        </mxCell>
        <mxCell id="OWbzr1YiDZEQwKMD5FUT-14" value="&amp;lt;&amp;lt;Extend&amp;gt;&amp;gt;" style="edgeStyle=orthogonalEdgeStyle;rounded=0;orthogonalLoop=1;jettySize=auto;html=1;entryX=1;entryY=0.5;entryDx=0;entryDy=0;" edge="1" parent="1" source="OWbzr1YiDZEQwKMD5FUT-10" target="OWbzr1YiDZEQwKMD5FUT-9">
          <mxGeometry relative="1" as="geometry" />
        </mxCell>
        <mxCell id="OWbzr1YiDZEQwKMD5FUT-10" value="UC04&lt;br&gt;Calcular&lt;br&gt;Boleto" style="ellipse;whiteSpace=wrap;html=1;align=center;" vertex="1" parent="1">
          <mxGeometry x="680" y="490" width="110" height="80" as="geometry" />
        </mxCell>
        <mxCell id="OWbzr1YiDZEQwKMD5FUT-8" value="&amp;lt;&amp;lt;Include&amp;gt;&amp;gt;" style="endArrow=classic;html=1;rounded=0;entryX=0.973;entryY=0.663;entryDx=0;entryDy=0;entryPerimeter=0;exitX=0.973;exitY=0.663;exitDx=0;exitDy=0;exitPerimeter=0;" edge="1" parent="1" source="OWbzr1YiDZEQwKMD5FUT-4">
          <mxGeometry width="50" height="50" relative="1" as="geometry">
            <mxPoint x="685" y="270" as="sourcePoint" />
            <mxPoint x="680" y="330" as="targetPoint" />
            <Array as="points">
              <mxPoint x="680" y="263" />
            </Array>
          </mxGeometry>
        </mxCell>
        <mxCell id="OWbzr1YiDZEQwKMD5FUT-18" value="" style="endArrow=none;html=1;rounded=0;exitX=1;exitY=0.313;exitDx=0;exitDy=0;exitPerimeter=0;" edge="1" parent="1" source="OWbzr1YiDZEQwKMD5FUT-9">
          <mxGeometry width="50" height="50" relative="1" as="geometry">
            <mxPoint x="710" y="460" as="sourcePoint" />
            <mxPoint x="840" y="250" as="targetPoint" />
            <Array as="points">
              <mxPoint x="760" y="445" />
              <mxPoint x="760" y="250" />
            </Array>
          </mxGeometry>
        </mxCell>
        <mxCell id="OWbzr1YiDZEQwKMD5FUT-19" value="Coordenador" style="shape=umlActor;verticalLabelPosition=bottom;verticalAlign=top;html=1;outlineConnect=0;" vertex="1" parent="1">
          <mxGeometry x="840" y="220" width="30" height="60" as="geometry" />
        </mxCell>
        <mxCell id="OWbzr1YiDZEQwKMD5FUT-20" value="Sistema Escolar" style="swimlane;whiteSpace=wrap;html=1;" vertex="1" parent="1">
          <mxGeometry x="440" y="150" width="390" height="480" as="geometry">
            <mxRectangle x="440" y="150" width="130" height="30" as="alternateBounds" />
          </mxGeometry>
        </mxCell>
      </root>
    </mxGraphModel>
  </diagram>
</mxfile>
